<svg aria-roledescription="er" role="graphics-document document" viewBox="0 0 816.9263916015625 543" style="max-width: 816.926px; background-color: white;" xmlns:xlink="http://www.w3.org/1999/xlink" xmlns="http://www.w3.org/2000/svg" width="100%" id="mermaid-0"><style>#mermaid-0{font-family:"trebuchet ms",verdana,arial,sans-serif;font-size:16px;fill:#000000;}#mermaid-0 .error-icon{fill:#552222;}#mermaid-0 .error-text{fill:#552222;stroke:#552222;}#mermaid-0 .edge-thickness-normal{stroke-width:2px;}#mermaid-0 .edge-thickness-thick{stroke-width:3.5px;}#mermaid-0 .edge-pattern-solid{stroke-dasharray:0;}#mermaid-0 .edge-pattern-dashed{stroke-dasharray:3;}#mermaid-0 .edge-pattern-dotted{stroke-dasharray:2;}#mermaid-0 .marker{fill:#000000;stroke:#000000;}#mermaid-0 .marker.cross{stroke:#000000;}#mermaid-0 svg{font-family:"trebuchet ms",verdana,arial,sans-serif;font-size:16px;}#mermaid-0 .entityBox{fill:#cde498;stroke:#13540c;}#mermaid-0 .attributeBoxOdd{fill:#ffffff;stroke:#13540c;}#mermaid-0 .attributeBoxEven{fill:#f2f2f2;stroke:#13540c;}#mermaid-0 .relationshipLabelBox{fill:hsl(78.1578947368, 58.4615384615%, 84.5098039216%);opacity:0.7;background-color:hsl(78.1578947368, 58.4615384615%, 84.5098039216%);}#mermaid-0 .relationshipLabelBox rect{opacity:0.5;}#mermaid-0 .relationshipLine{stroke:#000000;}#mermaid-0 .entityTitleText{text-anchor:middle;font-size:18px;fill:#000000;}#mermaid-0 :root{--mermaid-font-family:"trebuchet ms",verdana,arial,sans-serif;}</style><g/><defs><marker orient="auto" markerHeight="18" markerWidth="18" refY="9" refX="0" id="ONLY_ONE_START"><path d="M9,0 L9,18 M15,0 L15,18" fill="none" stroke="gray"/></marker></defs><defs><marker orient="auto" markerHeight="18" markerWidth="18" refY="9" refX="18" id="ONLY_ONE_END"><path d="M3,0 L3,18 M9,0 L9,18" fill="none" stroke="gray"/></marker></defs><defs><marker orient="auto" markerHeight="18" markerWidth="30" refY="9" refX="0" id="ZERO_OR_ONE_START"><circle r="6" cy="9" cx="21" fill="white" stroke="gray"/><path d="M9,0 L9,18" fill="none" stroke="gray"/></marker></defs><defs><marker orient="auto" markerHeight="18" markerWidth="30" refY="9" refX="30" id="ZERO_OR_ONE_END"><circle r="6" cy="9" cx="9" fill="white" stroke="gray"/><path d="M21,0 L21,18" fill="none" stroke="gray"/></marker></defs><defs><marker orient="auto" markerHeight="36" markerWidth="45" refY="18" refX="18" id="ONE_OR_MORE_START"><path d="M0,18 Q 18,0 36,18 Q 18,36 0,18 M42,9 L42,27" fill="none" stroke="gray"/></marker></defs><defs><marker orient="auto" markerHeight="36" markerWidth="45" refY="18" refX="27" id="ONE_OR_MORE_END"><path d="M3,9 L3,27 M9,18 Q27,0 45,18 Q27,36 9,18" fill="none" stroke="gray"/></marker></defs><defs><marker orient="auto" markerHeight="36" markerWidth="57" refY="18" refX="18" id="ZERO_OR_MORE_START"><circle r="6" cy="18" cx="48" fill="white" stroke="gray"/><path d="M0,18 Q18,0 36,18 Q18,36 0,18" fill="none" stroke="gray"/></marker></defs><defs><marker orient="auto" markerHeight="36" markerWidth="57" refY="18" refX="39" id="ZERO_OR_MORE_END"><circle r="6" cy="18" cx="9" fill="white" stroke="gray"/><path d="M21,18 Q39,0 57,18 Q39,36 21,18" fill="none" stroke="gray"/></marker></defs><path style="stroke: gray; fill: none;" marker-start="url(#ZERO_OR_ONE_START)" marker-end="url(#ONLY_ONE_END)" d="M408.01007080078125,135.53137333152029L351.67505900065106,154.6094777762669C295.3400472005208,173.6875822210135,182.6700236002604,211.84379111050677,126.3350118001302,250.33856222192003C70,288.8333333333333,70,327.6666666666667,70,347.0833333333333L70,366.5" class="er relationshipLine"/><path style="stroke: gray; fill: none;" marker-start="url(#ZERO_OR_ONE_START)" marker-end="url(#ONLY_ONE_END)" d="M408.01007080078125,161.06274666304057L386.1251169840495,175.88562221920049C364.2401631673177,190.70849777536037,320.4702555338542,220.3542488876802,298.5853017171224,254.59379111050677C276.7003479003906,288.8333333333333,276.7003479003906,327.6666666666667,276.7003479003906,347.0833333333333L276.7003479003906,366.5" class="er relationshipLine"/><path style="stroke: gray; fill: none;" marker-start="url(#ZERO_OR_ONE_START)" marker-end="url(#ONLY_ONE_END)" d="M483.40069580078125,200L483.40069580078125,208.33333333333334C483.40069580078125,216.66666666666666,483.40069580078125,233.33333333333334,483.40069580078125,261.0833333333333C483.40069580078125,288.8333333333333,483.40069580078125,327.6666666666667,483.40069580078125,347.0833333333333L483.40069580078125,366.5" class="er relationshipLine"/><path style="stroke: gray; fill: none;" marker-start="url(#ZERO_OR_ONE_START)" marker-end="url(#ONLY_ONE_END)" d="M558.7913208007812,173.62790363101644L573.8731212615967,186.35658635918037C588.9549217224121,199.0852690873443,619.118522644043,224.54263454367216,637.5997775818911,245.60465060516938C656.0810325197391,266.6666666666667,662.8799414738044,283.3333333333333,666.279395950837,291.6666666666667L669.6788504278696,300" class="er relationshipLine"/><path style="stroke: gray; fill: none;" marker-start="url(#ZERO_OR_MORE_START)" marker-end="url(#ZERO_OR_MORE_END)" d="M749.6836751695757,300L752.2636545297408,291.6666666666667C754.843633889906,283.3333333333333,760.0035926102361,266.6666666666667,728.1882002154371,241.24324515744192C696.3728078206381,215.81982364821715,627.5820643107096,181.63964729643428,593.1866925557455,164.54955912054285L558.7913208007812,147.4594709446514" class="er relationshipLine"/><g transform="translate(20,366.5 )" id="entity-Age-038f73d8-601c-5d30-8ee4-f53e61891abe"><rect height="90" width="100" y="0" x="0" class="er entityBox"/><text style="dominant-baseline: middle; text-anchor: middle; font-size: 12px;" transform="translate(50,12)" y="0" x="0" id="text-entity-Age-038f73d8-601c-5d30-8ee4-f53e61891abe" class="er entityLabel">Age</text><rect height="22" width="50" y="24" x="0" class="er attributeBoxOdd"/><text style="dominant-baseline: middle; font-size: 10.2px;" transform="translate(5,35)" y="0" x="0" id="text-entity-Age-038f73d8-601c-5d30-8ee4-f53e61891abe-attr-1-type" class="er entityLabel">FILHOTE</text><rect height="22" width="50" y="24" x="50" class="er attributeBoxOdd"/><text style="dominant-baseline: middle; font-size: 10.2px;" transform="translate(55,35)" y="0" x="0" id="text-entity-Age-038f73d8-601c-5d30-8ee4-f53e61891abe-attr-1-name" class="er entityLabel">FILHOTE</text><rect height="22" width="50" y="46" x="0" class="er attributeBoxEven"/><text style="dominant-baseline: middle; font-size: 10.2px;" transform="translate(5,57)" y="0" x="0" id="text-entity-Age-038f73d8-601c-5d30-8ee4-f53e61891abe-attr-2-type" class="er entityLabel">ADULTO</text><rect height="22" width="50" y="46" x="50" class="er attributeBoxEven"/><text style="dominant-baseline: middle; font-size: 10.2px;" transform="translate(55,57)" y="0" x="0" id="text-entity-Age-038f73d8-601c-5d30-8ee4-f53e61891abe-attr-2-name" class="er entityLabel">ADULTO</text><rect height="22" width="50" y="68" x="0" class="er attributeBoxOdd"/><text style="dominant-baseline: middle; font-size: 10.2px;" transform="translate(5,79)" y="0" x="0" id="text-entity-Age-038f73d8-601c-5d30-8ee4-f53e61891abe-attr-3-type" class="er entityLabel">SENIOR</text><rect height="22" width="50" y="68" x="50" class="er attributeBoxOdd"/><text style="dominant-baseline: middle; font-size: 10.2px;" transform="translate(55,79)" y="0" x="0" id="text-entity-Age-038f73d8-601c-5d30-8ee4-f53e61891abe-attr-3-name" class="er entityLabel">SENIOR</text></g><g transform="translate(220,366.5 )" id="entity-EnergyLevel-6fde254a-f97a-5730-abe8-3cce97a06cc2"><rect height="90" width="113.40069580078125" y="0" x="0" class="er entityBox"/><text style="dominant-baseline: middle; text-anchor: middle; font-size: 12px;" transform="translate(56.700347900390625,12)" y="0" x="0" id="text-entity-EnergyLevel-6fde254a-f97a-5730-abe8-3cce97a06cc2" class="er entityLabel">EnergyLevel</text><rect height="22" width="56.700347900390625" y="24" x="0" class="er attributeBoxOdd"/><text style="dominant-baseline: middle; font-size: 10.2px;" transform="translate(5,35)" y="0" x="0" id="text-entity-EnergyLevel-6fde254a-f97a-5730-abe8-3cce97a06cc2-attr-1-type" class="er entityLabel">CALM</text><rect height="22" width="56.700347900390625" y="24" x="56.700347900390625" class="er attributeBoxOdd"/><text style="dominant-baseline: middle; font-size: 10.2px;" transform="translate(61.700347900390625,35)" y="0" x="0" id="text-entity-EnergyLevel-6fde254a-f97a-5730-abe8-3cce97a06cc2-attr-1-name" class="er entityLabel">CALM</text><rect height="22" width="56.700347900390625" y="46" x="0" class="er attributeBoxEven"/><text style="dominant-baseline: middle; font-size: 10.2px;" transform="translate(5,57)" y="0" x="0" id="text-entity-EnergyLevel-6fde254a-f97a-5730-abe8-3cce97a06cc2-attr-2-type" class="er entityLabel">PEACEFUL</text><rect height="22" width="56.700347900390625" y="46" x="56.700347900390625" class="er attributeBoxEven"/><text style="dominant-baseline: middle; font-size: 10.2px;" transform="translate(61.700347900390625,57)" y="0" x="0" id="text-entity-EnergyLevel-6fde254a-f97a-5730-abe8-3cce97a06cc2-attr-2-name" class="er entityLabel">PEACEFUL</text><rect height="22" width="56.700347900390625" y="68" x="0" class="er attributeBoxOdd"/><text style="dominant-baseline: middle; font-size: 10.2px;" transform="translate(5,79)" y="0" x="0" id="text-entity-EnergyLevel-6fde254a-f97a-5730-abe8-3cce97a06cc2-attr-3-type" class="er entityLabel">FUSSY</text><rect height="22" width="56.700347900390625" y="68" x="56.700347900390625" class="er attributeBoxOdd"/><text style="dominant-baseline: middle; font-size: 10.2px;" transform="translate(61.700347900390625,79)" y="0" x="0" id="text-entity-EnergyLevel-6fde254a-f97a-5730-abe8-3cce97a06cc2-attr-3-name" class="er entityLabel">FUSSY</text></g><g transform="translate(433.40069580078125,366.5 )" id="entity-Size-c0ba90fa-1efb-5f55-8fa3-b6fac4a7af2e"><rect height="90" width="100" y="0" x="0" class="er entityBox"/><text style="dominant-baseline: middle; text-anchor: middle; font-size: 12px;" transform="translate(50,12)" y="0" x="0" id="text-entity-Size-c0ba90fa-1efb-5f55-8fa3-b6fac4a7af2e" class="er entityLabel">Size</text><rect height="22" width="50" y="24" x="0" class="er attributeBoxOdd"/><text style="dominant-baseline: middle; font-size: 10.2px;" transform="translate(5,35)" y="0" x="0" id="text-entity-Size-c0ba90fa-1efb-5f55-8fa3-b6fac4a7af2e-attr-1-type" class="er entityLabel">SMALL</text><rect height="22" width="50" y="24" x="50" class="er attributeBoxOdd"/><text style="dominant-baseline: middle; font-size: 10.2px;" transform="translate(55,35)" y="0" x="0" id="text-entity-Size-c0ba90fa-1efb-5f55-8fa3-b6fac4a7af2e-attr-1-name" class="er entityLabel">SMALL</text><rect height="22" width="50" y="46" x="0" class="er attributeBoxEven"/><text style="dominant-baseline: middle; font-size: 10.2px;" transform="translate(5,57)" y="0" x="0" id="text-entity-Size-c0ba90fa-1efb-5f55-8fa3-b6fac4a7af2e-attr-2-type" class="er entityLabel">MEDIUM</text><rect height="22" width="50" y="46" x="50" class="er attributeBoxEven"/><text style="dominant-baseline: middle; font-size: 10.2px;" transform="translate(55,57)" y="0" x="0" id="text-entity-Size-c0ba90fa-1efb-5f55-8fa3-b6fac4a7af2e-attr-2-name" class="er entityLabel">MEDIUM</text><rect height="22" width="50" y="68" x="0" class="er attributeBoxOdd"/><text style="dominant-baseline: middle; font-size: 10.2px;" transform="translate(5,79)" y="0" x="0" id="text-entity-Size-c0ba90fa-1efb-5f55-8fa3-b6fac4a7af2e-attr-3-type" class="er entityLabel">BIG</text><rect height="22" width="50" y="68" x="50" class="er attributeBoxOdd"/><text style="dominant-baseline: middle; font-size: 10.2px;" transform="translate(55,79)" y="0" x="0" id="text-entity-Size-c0ba90fa-1efb-5f55-8fa3-b6fac4a7af2e-attr-3-name" class="er entityLabel">BIG</text></g><g transform="translate(408.01007080078125,20 )" id="entity-pets-c8ddf567-7858-5c2f-8d5c-09924015b056"><rect height="180" width="150.78125" y="0" x="0" class="er entityBox"/><text style="dominant-baseline: middle; text-anchor: middle; font-size: 12px;" transform="translate(75.390625,12)" y="0" x="0" id="text-entity-pets-c8ddf567-7858-5c2f-8d5c-09924015b056" class="er entityLabel">pets</text><rect height="23" width="65.015625" y="24" x="0" class="er attributeBoxOdd"/><text style="dominant-baseline: middle; font-size: 10.2px;" transform="translate(5,35.5)" y="0" x="0" id="text-entity-pets-c8ddf567-7858-5c2f-8d5c-09924015b056-attr-1-type" class="er entityLabel">String</text><rect height="23" width="63.1875" y="24" x="65.015625" class="er attributeBoxOdd"/><text style="dominant-baseline: middle; font-size: 10.2px;" transform="translate(70.015625,35.5)" y="0" x="0" id="text-entity-pets-c8ddf567-7858-5c2f-8d5c-09924015b056-attr-1-name" class="er entityLabel">id</text><rect height="23" width="22.578125" y="24" x="128.203125" class="er attributeBoxOdd"/><text style="dominant-baseline: middle; font-size: 10.2px;" transform="translate(133.203125,35.5)" y="0" x="0" id="text-entity-pets-c8ddf567-7858-5c2f-8d5c-09924015b056-attr-1-comment" class="er entityLabel">🗝️</text><rect height="22" width="65.015625" y="47" x="0" class="er attributeBoxEven"/><text style="dominant-baseline: middle; font-size: 10.2px;" transform="translate(5,58)" y="0" x="0" id="text-entity-pets-c8ddf567-7858-5c2f-8d5c-09924015b056-attr-2-type" class="er entityLabel">String</text><rect height="22" width="63.1875" y="47" x="65.015625" class="er attributeBoxEven"/><text style="dominant-baseline: middle; font-size: 10.2px;" transform="translate(70.015625,58)" y="0" x="0" id="text-entity-pets-c8ddf567-7858-5c2f-8d5c-09924015b056-attr-2-name" class="er entityLabel">name</text><rect height="22" width="22.578125" y="47" x="128.203125" class="er attributeBoxEven"/><text style="dominant-baseline: middle; font-size: 10.2px;" transform="translate(133.203125,58)" y="0" x="0" id="text-entity-pets-c8ddf567-7858-5c2f-8d5c-09924015b056-attr-2-comment" class="er entityLabel"/><rect height="23" width="65.015625" y="69" x="0" class="er attributeBoxOdd"/><text style="dominant-baseline: middle; font-size: 10.2px;" transform="translate(5,80.5)" y="0" x="0" id="text-entity-pets-c8ddf567-7858-5c2f-8d5c-09924015b056-attr-3-type" class="er entityLabel">String</text><rect height="23" width="63.1875" y="69" x="65.015625" class="er attributeBoxOdd"/><text style="dominant-baseline: middle; font-size: 10.2px;" transform="translate(70.015625,80.5)" y="0" x="0" id="text-entity-pets-c8ddf567-7858-5c2f-8d5c-09924015b056-attr-3-name" class="er entityLabel">description</text><rect height="23" width="22.578125" y="69" x="128.203125" class="er attributeBoxOdd"/><text style="dominant-baseline: middle; font-size: 10.2px;" transform="translate(133.203125,80.5)" y="0" x="0" id="text-entity-pets-c8ddf567-7858-5c2f-8d5c-09924015b056-attr-3-comment" class="er entityLabel">❓</text><rect height="22" width="65.015625" y="92" x="0" class="er attributeBoxEven"/><text style="dominant-baseline: middle; font-size: 10.2px;" transform="translate(5,103)" y="0" x="0" id="text-entity-pets-c8ddf567-7858-5c2f-8d5c-09924015b056-attr-4-type" class="er entityLabel">Age</text><rect height="22" width="63.1875" y="92" x="65.015625" class="er attributeBoxEven"/><text style="dominant-baseline: middle; font-size: 10.2px;" transform="translate(70.015625,103)" y="0" x="0" id="text-entity-pets-c8ddf567-7858-5c2f-8d5c-09924015b056-attr-4-name" class="er entityLabel">age</text><rect height="22" width="22.578125" y="92" x="128.203125" class="er attributeBoxEven"/><text style="dominant-baseline: middle; font-size: 10.2px;" transform="translate(133.203125,103)" y="0" x="0" id="text-entity-pets-c8ddf567-7858-5c2f-8d5c-09924015b056-attr-4-comment" class="er entityLabel"/><rect height="22" width="65.015625" y="114" x="0" class="er attributeBoxOdd"/><text style="dominant-baseline: middle; font-size: 10.2px;" transform="translate(5,125)" y="0" x="0" id="text-entity-pets-c8ddf567-7858-5c2f-8d5c-09924015b056-attr-5-type" class="er entityLabel">EnergyLevel</text><rect height="22" width="63.1875" y="114" x="65.015625" class="er attributeBoxOdd"/><text style="dominant-baseline: middle; font-size: 10.2px;" transform="translate(70.015625,125)" y="0" x="0" id="text-entity-pets-c8ddf567-7858-5c2f-8d5c-09924015b056-attr-5-name" class="er entityLabel">enery_level</text><rect height="22" width="22.578125" y="114" x="128.203125" class="er attributeBoxOdd"/><text style="dominant-baseline: middle; font-size: 10.2px;" transform="translate(133.203125,125)" y="0" x="0" id="text-entity-pets-c8ddf567-7858-5c2f-8d5c-09924015b056-attr-5-comment" class="er entityLabel"/><rect height="22" width="65.015625" y="136" x="0" class="er attributeBoxEven"/><text style="dominant-baseline: middle; font-size: 10.2px;" transform="translate(5,147)" y="0" x="0" id="text-entity-pets-c8ddf567-7858-5c2f-8d5c-09924015b056-attr-6-type" class="er entityLabel">Size</text><rect height="22" width="63.1875" y="136" x="65.015625" class="er attributeBoxEven"/><text style="dominant-baseline: middle; font-size: 10.2px;" transform="translate(70.015625,147)" y="0" x="0" id="text-entity-pets-c8ddf567-7858-5c2f-8d5c-09924015b056-attr-6-name" class="er entityLabel">size</text><rect height="22" width="22.578125" y="136" x="128.203125" class="er attributeBoxEven"/><text style="dominant-baseline: middle; font-size: 10.2px;" transform="translate(133.203125,147)" y="0" x="0" id="text-entity-pets-c8ddf567-7858-5c2f-8d5c-09924015b056-attr-6-comment" class="er entityLabel"/><rect height="22" width="65.015625" y="158" x="0" class="er attributeBoxOdd"/><text style="dominant-baseline: middle; font-size: 10.2px;" transform="translate(5,169)" y="0" x="0" id="text-entity-pets-c8ddf567-7858-5c2f-8d5c-09924015b056-attr-7-type" class="er entityLabel">DateTime</text><rect height="22" width="63.1875" y="158" x="65.015625" class="er attributeBoxOdd"/><text style="dominant-baseline: middle; font-size: 10.2px;" transform="translate(70.015625,169)" y="0" x="0" id="text-entity-pets-c8ddf567-7858-5c2f-8d5c-09924015b056-attr-7-name" class="er entityLabel">created_at</text><rect height="22" width="22.578125" y="158" x="128.203125" class="er attributeBoxOdd"/><text style="dominant-baseline: middle; font-size: 10.2px;" transform="translate(133.203125,169)" y="0" x="0" id="text-entity-pets-c8ddf567-7858-5c2f-8d5c-09924015b056-attr-7-comment" class="er entityLabel"/></g><g transform="translate(633.4006958007812,300 )" id="entity-organizations-258d3fad-6db4-59dd-b3e6-44cc4246c92e"><rect height="223" width="163.5257110595703" y="0" x="0" class="er entityBox"/><text style="dominant-baseline: middle; text-anchor: middle; font-size: 12px;" transform="translate(81.76285552978516,12)" y="0" x="0" id="text-entity-organizations-258d3fad-6db4-59dd-b3e6-44cc4246c92e" class="er entityLabel">organizations</text><rect height="23" width="54.095550537109375" y="24" x="0" class="er attributeBoxOdd"/><text style="dominant-baseline: middle; font-size: 10.2px;" transform="translate(5,35.5)" y="0" x="0" id="text-entity-organizations-258d3fad-6db4-59dd-b3e6-44cc4246c92e-attr-1-type" class="er entityLabel">String</text><rect height="23" width="86.85203552246094" y="24" x="54.095550537109375" class="er attributeBoxOdd"/><text style="dominant-baseline: middle; font-size: 10.2px;" transform="translate(59.095550537109375,35.5)" y="0" x="0" id="text-entity-organizations-258d3fad-6db4-59dd-b3e6-44cc4246c92e-attr-1-name" class="er entityLabel">id</text><rect height="23" width="22.578125" y="24" x="140.9475860595703" class="er attributeBoxOdd"/><text style="dominant-baseline: middle; font-size: 10.2px;" transform="translate(145.9475860595703,35.5)" y="0" x="0" id="text-entity-organizations-258d3fad-6db4-59dd-b3e6-44cc4246c92e-attr-1-comment" class="er entityLabel">🗝️</text><rect height="22" width="54.095550537109375" y="47" x="0" class="er attributeBoxEven"/><text style="dominant-baseline: middle; font-size: 10.2px;" transform="translate(5,58)" y="0" x="0" id="text-entity-organizations-258d3fad-6db4-59dd-b3e6-44cc4246c92e-attr-2-type" class="er entityLabel">String</text><rect height="22" width="86.85203552246094" y="47" x="54.095550537109375" class="er attributeBoxEven"/><text style="dominant-baseline: middle; font-size: 10.2px;" transform="translate(59.095550537109375,58)" y="0" x="0" id="text-entity-organizations-258d3fad-6db4-59dd-b3e6-44cc4246c92e-attr-2-name" class="er entityLabel">name</text><rect height="22" width="22.578125" y="47" x="140.9475860595703" class="er attributeBoxEven"/><text style="dominant-baseline: middle; font-size: 10.2px;" transform="translate(145.9475860595703,58)" y="0" x="0" id="text-entity-organizations-258d3fad-6db4-59dd-b3e6-44cc4246c92e-attr-2-comment" class="er entityLabel"/><rect height="22" width="54.095550537109375" y="69" x="0" class="er attributeBoxOdd"/><text style="dominant-baseline: middle; font-size: 10.2px;" transform="translate(5,80)" y="0" x="0" id="text-entity-organizations-258d3fad-6db4-59dd-b3e6-44cc4246c92e-attr-3-type" class="er entityLabel">String</text><rect height="22" width="86.85203552246094" y="69" x="54.095550537109375" class="er attributeBoxOdd"/><text style="dominant-baseline: middle; font-size: 10.2px;" transform="translate(59.095550537109375,80)" y="0" x="0" id="text-entity-organizations-258d3fad-6db4-59dd-b3e6-44cc4246c92e-attr-3-name" class="er entityLabel">resposible_name</text><rect height="22" width="22.578125" y="69" x="140.9475860595703" class="er attributeBoxOdd"/><text style="dominant-baseline: middle; font-size: 10.2px;" transform="translate(145.9475860595703,80)" y="0" x="0" id="text-entity-organizations-258d3fad-6db4-59dd-b3e6-44cc4246c92e-attr-3-comment" class="er entityLabel"/><rect height="22" width="54.095550537109375" y="91" x="0" class="er attributeBoxEven"/><text style="dominant-baseline: middle; font-size: 10.2px;" transform="translate(5,102)" y="0" x="0" id="text-entity-organizations-258d3fad-6db4-59dd-b3e6-44cc4246c92e-attr-4-type" class="er entityLabel">String</text><rect height="22" width="86.85203552246094" y="91" x="54.095550537109375" class="er attributeBoxEven"/><text style="dominant-baseline: middle; font-size: 10.2px;" transform="translate(59.095550537109375,102)" y="0" x="0" id="text-entity-organizations-258d3fad-6db4-59dd-b3e6-44cc4246c92e-attr-4-name" class="er entityLabel">email</text><rect height="22" width="22.578125" y="91" x="140.9475860595703" class="er attributeBoxEven"/><text style="dominant-baseline: middle; font-size: 10.2px;" transform="translate(145.9475860595703,102)" y="0" x="0" id="text-entity-organizations-258d3fad-6db4-59dd-b3e6-44cc4246c92e-attr-4-comment" class="er entityLabel"/><rect height="22" width="54.095550537109375" y="113" x="0" class="er attributeBoxOdd"/><text style="dominant-baseline: middle; font-size: 10.2px;" transform="translate(5,124)" y="0" x="0" id="text-entity-organizations-258d3fad-6db4-59dd-b3e6-44cc4246c92e-attr-5-type" class="er entityLabel">String</text><rect height="22" width="86.85203552246094" y="113" x="54.095550537109375" class="er attributeBoxOdd"/><text style="dominant-baseline: middle; font-size: 10.2px;" transform="translate(59.095550537109375,124)" y="0" x="0" id="text-entity-organizations-258d3fad-6db4-59dd-b3e6-44cc4246c92e-attr-5-name" class="er entityLabel">password_hash</text><rect height="22" width="22.578125" y="113" x="140.9475860595703" class="er attributeBoxOdd"/><text style="dominant-baseline: middle; font-size: 10.2px;" transform="translate(145.9475860595703,124)" y="0" x="0" id="text-entity-organizations-258d3fad-6db4-59dd-b3e6-44cc4246c92e-attr-5-comment" class="er entityLabel"/><rect height="22" width="54.095550537109375" y="135" x="0" class="er attributeBoxEven"/><text style="dominant-baseline: middle; font-size: 10.2px;" transform="translate(5,146)" y="0" x="0" id="text-entity-organizations-258d3fad-6db4-59dd-b3e6-44cc4246c92e-attr-6-type" class="er entityLabel">String</text><rect height="22" width="86.85203552246094" y="135" x="54.095550537109375" class="er attributeBoxEven"/><text style="dominant-baseline: middle; font-size: 10.2px;" transform="translate(59.095550537109375,146)" y="0" x="0" id="text-entity-organizations-258d3fad-6db4-59dd-b3e6-44cc4246c92e-attr-6-name" class="er entityLabel">address</text><rect height="22" width="22.578125" y="135" x="140.9475860595703" class="er attributeBoxEven"/><text style="dominant-baseline: middle; font-size: 10.2px;" transform="translate(145.9475860595703,146)" y="0" x="0" id="text-entity-organizations-258d3fad-6db4-59dd-b3e6-44cc4246c92e-attr-6-comment" class="er entityLabel"/><rect height="22" width="54.095550537109375" y="157" x="0" class="er attributeBoxOdd"/><text style="dominant-baseline: middle; font-size: 10.2px;" transform="translate(5,168)" y="0" x="0" id="text-entity-organizations-258d3fad-6db4-59dd-b3e6-44cc4246c92e-attr-7-type" class="er entityLabel">String</text><rect height="22" width="86.85203552246094" y="157" x="54.095550537109375" class="er attributeBoxOdd"/><text style="dominant-baseline: middle; font-size: 10.2px;" transform="translate(59.095550537109375,168)" y="0" x="0" id="text-entity-organizations-258d3fad-6db4-59dd-b3e6-44cc4246c92e-attr-7-name" class="er entityLabel">city</text><rect height="22" width="22.578125" y="157" x="140.9475860595703" class="er attributeBoxOdd"/><text style="dominant-baseline: middle; font-size: 10.2px;" transform="translate(145.9475860595703,168)" y="0" x="0" id="text-entity-organizations-258d3fad-6db4-59dd-b3e6-44cc4246c92e-attr-7-comment" class="er entityLabel"/><rect height="22" width="54.095550537109375" y="179" x="0" class="er attributeBoxEven"/><text style="dominant-baseline: middle; font-size: 10.2px;" transform="translate(5,190)" y="0" x="0" id="text-entity-organizations-258d3fad-6db4-59dd-b3e6-44cc4246c92e-attr-8-type" class="er entityLabel">String</text><rect height="22" width="86.85203552246094" y="179" x="54.095550537109375" class="er attributeBoxEven"/><text style="dominant-baseline: middle; font-size: 10.2px;" transform="translate(59.095550537109375,190)" y="0" x="0" id="text-entity-organizations-258d3fad-6db4-59dd-b3e6-44cc4246c92e-attr-8-name" class="er entityLabel">postal_code</text><rect height="22" width="22.578125" y="179" x="140.9475860595703" class="er attributeBoxEven"/><text style="dominant-baseline: middle; font-size: 10.2px;" transform="translate(145.9475860595703,190)" y="0" x="0" id="text-entity-organizations-258d3fad-6db4-59dd-b3e6-44cc4246c92e-attr-8-comment" class="er entityLabel"/><rect height="22" width="54.095550537109375" y="201" x="0" class="er attributeBoxOdd"/><text style="dominant-baseline: middle; font-size: 10.2px;" transform="translate(5,212)" y="0" x="0" id="text-entity-organizations-258d3fad-6db4-59dd-b3e6-44cc4246c92e-attr-9-type" class="er entityLabel">DateTime</text><rect height="22" width="86.85203552246094" y="201" x="54.095550537109375" class="er attributeBoxOdd"/><text style="dominant-baseline: middle; font-size: 10.2px;" transform="translate(59.095550537109375,212)" y="0" x="0" id="text-entity-organizations-258d3fad-6db4-59dd-b3e6-44cc4246c92e-attr-9-name" class="er entityLabel">created_at</text><rect height="22" width="22.578125" y="201" x="140.9475860595703" class="er attributeBoxOdd"/><text style="dominant-baseline: middle; font-size: 10.2px;" transform="translate(145.9475860595703,212)" y="0" x="0" id="text-entity-organizations-258d3fad-6db4-59dd-b3e6-44cc4246c92e-attr-9-comment" class="er entityLabel"/></g><rect height="14" width="53.353515625" y="204.1919708251953" x="173.89845275878906" class="er relationshipLabelBox"/><text style="text-anchor: middle; dominant-baseline: middle; font-size: 12px;" y="211.1919708251953" x="200.57521057128906" id="rel1" class="er relationshipLabel">enum:age</text><rect height="14" width="97.052734375" y="235.80511474609375" x="258.5498046875" class="er relationshipLabelBox"/><text style="text-anchor: middle; dominant-baseline: middle; font-size: 12px;" y="242.80511474609375" x="307.076171875" id="rel2" class="er relationshipLabel">enum:enery_level</text><rect height="14" width="55" y="276.25" x="455.90069580078125" class="er relationshipLabelBox"/><text style="text-anchor: middle; dominant-baseline: middle; font-size: 12px;" y="283.25" x="483.40069580078125" id="rel3" class="er relationshipLabel">enum:size</text><rect height="14" width="67.029296875" y="222.94430541992188" x="589.1566772460938" class="er relationshipLabelBox"/><text style="text-anchor: middle; dominant-baseline: middle; font-size: 12px;" y="229.94430541992188" x="622.6713256835938" id="rel4" class="er relationshipLabel">organization</text><rect height="14" width="22.431640625" y="200.4772491455078" x="664.3580932617188" class="er relationshipLabelBox"/><text style="text-anchor: middle; dominant-baseline: middle; font-size: 12px;" y="207.4772491455078" x="675.5739135742188" id="rel5" class="er relationshipLabel">Pets</text></svg>